<?xml version="1.0" encoding="utf-8"?>
<!-- Generator: Adobe Illustrator 15.0.0, SVG Export Plug-In . SVG Version: 6.00 Build 0)  -->
<!DOCTYPE svg PUBLIC "-//W3C//DTD SVG 1.1//EN" "http://www.w3.org/Graphics/SVG/1.1/DTD/svg11.dtd">
<svg version="1.1" class="activelamp-logo" xmlns="http://www.w3.org/2000/svg" xmlns:xlink="http://www.w3.org/1999/xlink" x="0px" y="0px"
	 width="115px" height="34.517px" viewBox="0 0 115 34.517" enable-background="new 0 0 115 34.517" xml:space="preserve">
<g>
	<path class="al-normal" d="M35.461,29.677l-0.551-0.903c-0.678,0.702-1.63,1.154-2.708,1.154c-2.082,0-3.762-1.681-3.762-3.763v-1.504
		c0-2.082,1.681-3.762,3.762-3.762h2.508v-2.759c0-1.38-1.129-2.508-2.508-2.508c-1.379,0-2.508,1.128-2.508,2.508v1.504h-1.254
		v-1.504c0-2.082,1.681-3.762,3.762-3.762c2.081,0,3.761,1.68,3.761,3.762v11.536H35.461z M34.709,22.152h-2.508
		c-1.379,0-2.508,1.129-2.508,2.509v1.504c0,1.38,1.129,2.508,2.508,2.508c1.379,0,2.508-1.128,2.508-2.508V22.152z"/>
	<path class="al-normal" d="M41.606,29.928c-2.082,0-3.762-1.681-3.762-3.763v-8.024c0-2.082,1.68-3.762,3.762-3.762
		c2.082,0,3.762,1.68,3.762,3.762v1.504h-1.254v-1.504c0-1.38-1.128-2.508-2.507-2.508c-1.379,0-2.508,1.128-2.508,2.508v8.024
		c0,1.38,1.129,2.508,2.508,2.508c1.379,0,2.507-1.128,2.507-2.508v-1.504h1.254v1.504C45.368,28.247,43.688,29.928,41.606,29.928z"
		/>
	<path class="al-normal" d="M51.637,29.677c-2.082,0-3.762-1.681-3.762-3.762V15.884h-1.254v-1.255h1.254v-2.508h1.253v2.508h3.762
		v1.255h-3.762v10.031c0,1.379,1.129,2.508,2.508,2.508h1.253v1.254H51.637z"/>
	<path class="al-normal" d="M54.396,10.868V9.613h1.253v1.254H54.396z M54.396,29.677V14.629h1.253v15.048H54.396z"/>
	<path class="al-normal" d="M61.793,29.677h-1.254l-3.386-15.048h1.255l2.759,12.038l2.758-12.038h1.254L61.793,29.677z"/>
	<path class="al-normal" d="M70.194,29.928c-2.082,0-3.762-1.681-3.762-3.763v-8.024c0-2.082,1.68-3.762,3.762-3.762
		c2.081,0,3.762,1.68,3.762,3.762v4.012h-6.271v4.013c0,1.38,1.129,2.508,2.509,2.508c1.379,0,2.508-1.128,2.508-2.508v-1.504h1.254
		v1.504C73.956,28.247,72.275,29.928,70.194,29.928z M72.702,18.141c0-1.38-1.129-2.508-2.508-2.508
		c-1.38,0-2.509,1.128-2.509,2.508v2.759h5.017V18.141z"/>
	<path class="al-bold" d="M76.038,29.677V9.613h1.955v20.063H76.038z"/>
	<path class="al-bold" d="M86.972,29.677l-0.401-0.678c-0.677,0.577-1.58,0.929-2.532,0.929c-2.208,0-3.988-1.781-3.988-3.988v-1.454
		c0-2.207,1.78-3.987,3.988-3.987h2.056V18.19c0-1.128-0.928-2.057-2.056-2.057c-1.129,0-2.058,0.929-2.058,2.057v1.806H80.05V18.19
		c0-2.206,1.78-3.988,3.988-3.988c2.206,0,3.986,1.782,3.986,3.988v11.486H86.972z M86.094,22.429h-2.056
		c-1.129,0-2.058,0.928-2.058,2.057v1.454c0,1.128,0.929,2.057,2.058,2.057c1.128,0,2.056-0.929,2.056-2.057V22.429z"/>
	<path class="al-bold" d="M101.943,29.677V18.19c0-1.128-0.929-2.057-2.057-2.057c-1.129,0-2.056,0.929-2.056,2.057v11.486h-1.932
		V18.19c0-1.128-0.928-2.057-2.057-2.057s-2.057,0.929-2.057,2.057v11.486h-1.931V14.454h1.054l0.401,0.652
		c0.677-0.552,1.555-0.903,2.532-0.903c1.204,0,2.282,0.527,3.009,1.38c0.728-0.853,1.831-1.38,3.035-1.38
		c2.207,0,3.987,1.782,3.987,3.988v11.486H101.943z"/>
	<path class="al-bold" d="M109.691,29.928c-0.752,0-1.454-0.226-2.056-0.577v5.166h-1.931V14.454h1.053l0.401,0.652
		c0.677-0.552,1.556-0.903,2.532-0.903c2.208,0,3.988,1.782,3.988,3.988v7.749C113.68,28.146,111.899,29.928,109.691,29.928z
		 M111.749,18.19c0-1.128-0.929-2.057-2.058-2.057c-1.128,0-2.056,0.929-2.056,2.057v7.749c0,1.128,0.928,2.031,2.056,2.031
		c1.129,0,2.058-0.903,2.058-2.031V18.19z"/>
</g>
<g>
	<path class="al-bold" d="M10.487,28.722c0.332,0.531,2.602,3.026,6.625,2.426c4.725-0.704,5.205-4.43,5.205-4.43
		C17.66,32.183,11.48,29.253,10.487,28.722z"/>
	<path class="al-bold" d="M18.755,13.295c3.852-0.076,7.549-6.218,10.858-9.58c4.351-4.418,9.265-2.975,10.599-2.389
		C34.701-1.214,30.901,0.831,25.78,6.18c-4.257,4.446-6.354,5.07-7.351,4.978c0.547-0.351,0.875-0.964,0.911-1.662
		c0.046-0.88-0.433-1.594-1.491-1.85c-1.061-0.256-2.015-0.189-2.567,1.051C14.607,10.212,15.726,13.354,18.755,13.295z"/>
	<path class="al-bold" d="M25.864,11.935c-5.304,10.606-7.343,11.829-10.199,12.238c-2.855,0.407-7.063-1.224-6.248-6.527
		c0.746-4.845,8.158-4.482,7.262,0.877c0.867-0.968,1.971-6.151-4.062-6.366c-2.131-0.076-4.347,1.12-5.617,2.873
		c-1.269,1.752-1.643,2.667-3.566,3.704c-2.708,1.461-3.647,3.496-2.865,5.73c0.724,2.068,4.034,2.661,5.165,1.31
		c0.961-1.303,0.284-2.889-1.323-2.871c-1.116,0.014-1.609,0.871-1.615,1.768c-0.545-0.274-1.465-1.044-0.646-2.745
		c0.711-1.479,2.695-2.045,3.963-2.136c0.044,1.363,0.358,2.646,0.856,3.567c1.827,3.387,5.96,5.263,11.013,3.672
		c5.175-1.631,7.995-11.315,8.975-13.869c1.095-2.855,4.079-11.014,11.014-11.721C36.312,1.378,31.167,1.33,25.864,11.935z
		 M8.206,21.146c-0.424-0.447-1.301-3.455-0.301-5.329c1.489-2.792,4.091-2.407,4.091-2.407C6.7,14.853,8.206,21.146,8.206,21.146z"
		/>
</g>
<circle class="al-bold" cx="17.273" cy="9.404" r="2.113"/>
</svg>
